<?xml version="1.0" encoding="UTF-8"?>
<svg width="20px" height="20px" viewBox="0 0 20 20" version="1.1" xmlns="http://www.w3.org/2000/svg" xmlns:xlink="http://www.w3.org/1999/xlink">
    <!-- Generator: Sketch 49.3 (51167) - http://www.bohemiancoding.com/sketch -->
    <title>答@2x</title>
    <desc>Created with Sketch.</desc>
    <defs></defs>
    <g id="首页" stroke="none" stroke-width="1" fill="none" fill-rule="evenodd">
        <g id="PC首页" transform="translate(-215.000000, -1852.000000)">
            <g id="Group-4" transform="translate(215.000000, 1852.000000)">
                <rect id="Rectangle-23" fill="#D8D8D8" opacity="0" x="0" y="0" width="20" height="20"></rect>
                <g id="_问答2" fill="#A11715" fill-rule="nonzero">
                    <path d="M1.59277505,0.0159731059 L18.407225,0.0159731059 C19.2773727,0.0159731059 19.9835796,0.701921816 19.9835796,1.54734594 L19.9835796,14.5200572 C19.9835796,15.3665036 19.28,15.8612863 18.407225,15.8612863 L13.4464368,15.8612863 L10.7492939,18.6756183 C10.5517122,18.8685442 10.2832572,18.9769476 10.0033063,18.9768517 C9.72335532,18.9767558 9.4549789,18.8681684 9.25753695,18.6751072 L6.54725781,15.8612863 L1.59277505,15.8612863 C0.722627266,15.8612863 0.0164203695,15.3649701 0.0164203695,14.5200572 L0.0164203695,1.54734594 C0.0161403305,1.1407627 0.182197404,0.750783645 0.477942568,0.463477676 C0.773687732,0.176171707 1.17480781,0.0151582184 1.59277505,0.0159731059 Z M12.6272578,10.7498949 L12.6272578,11.7721732 L7.37274219,11.7721732 L7.37274219,10.7498949 L12.6272578,10.7498949 Z M13.6781609,9.72761665 L6.32183909,9.72761665 L6.32183909,13.3055906 L7.37274219,13.3055906 L7.37274219,12.7944515 L12.6272578,12.7944515 L12.6272578,13.3055906 L13.6781609,13.3055906 L13.6781609,9.72761665 Z M6.84729064,8.15075242 L6.84729064,8.70533837 L13.1527094,8.70533837 L13.1527094,8.15075242 L15.1783251,9.28854814 L15.7037767,8.40274401 L10.0010509,5.21119126 L10,5.20914669 L4.29622333,8.40274401 L4.82167488,9.28854814 L6.84729064,8.15075242 Z M7.68013135,7.68306012 L10,6.38016646 L12.3198686,7.68306012 L7.68013135,7.68306012 Z M11.687225,4.10508616 L12.5615764,4.10508616 L13.3812808,5.89662884 L14.3418062,5.48056157 L13.7123153,4.10508616 L15.7799672,4.10508616 L15.7799672,3.08280791 L12.2941215,3.08280791 L12.6177997,2.53742245 L11.7077176,2.02628332 L10.1313629,4.68216226 L11.041445,5.19330139 L11.6877504,4.10508616 L11.687225,4.10508616 Z M6.40328406,3.08280791 L6.70646963,2.57166876 L5.79638751,2.06052963 L4.22003283,4.71640858 L5.13011495,5.2275477 L5.79638751,4.10508616 L6.79106732,4.10508616 L7.61077175,5.89662884 L8.57129722,5.48056157 L7.94180623,4.10508616 L10,4.10508616 L10,3.08280791 L6.40328406,3.08280791 Z" id="Shape"></path>
                </g>
            </g>
        </g>
    </g>
</svg>